<?xml version="1.0" standalone="no"?>
<!DOCTYPE svg PUBLIC "-//W3C//DTD SVG 20010904//EN"
 "http://www.w3.org/TR/2001/REC-SVG-20010904/DTD/svg10.dtd">
<svg version="1.0" xmlns="http://www.w3.org/2000/svg"
 width="586.000000pt" height="407.000000pt" viewBox="0 0 586.000000 407.000000"
 preserveAspectRatio="xMidYMid meet">

<g transform="translate(0.000000,407.000000) scale(0.100000,-0.100000)"
fill="#000000" stroke="none">
<path d="M359 4052 c-121 -32 -224 -111 -293 -225 -70 -117 -66 -20 -66 -1792
0 -1772 -4 -1675 66 -1792 69 -114 172 -193 293 -225 62 -16 235 -17 2571 -17
2336 0 2509 1 2571 17 121 32 224 111 293 225 70 117 66 20 66 1792 0 1772 4
1675 -66 1792 -69 114 -172 193 -293 225 -62 16 -235 17 -2571 17 -2336 0
-2509 -1 -2571 -17z m5114 -7 c133 -28 261 -125 322 -244 57 -113 55 -50 55
-1766 0 -1716 2 -1653 -55 -1766 -37 -72 -123 -160 -195 -198 -121 -64 46 -61
-2660 -61 -1653 0 -2486 4 -2530 11 -190 30 -345 178 -385 366 -22 102 -22
3194 0 3296 39 183 195 336 375 366 32 5 1098 9 2530 10 2114 1 2485 -1 2543
-14z"/>
<path d="M1550 3355 c-319 -66 -579 -298 -678 -605 -87 -270 -41 -566 123
-795 53 -74 151 -170 227 -223 l57 -39 -75 -33 c-244 -107 -485 -345 -599
-592 -61 -134 -115 -338 -115 -440 l0 -28 1225 0 1225 0 0 28 c0 102 -54 306
-115 440 -113 243 -357 487 -590 588 -36 16 -65 31 -65 34 0 3 21 18 48 35 66
42 186 159 237 230 221 312 221 729 0 1040 -49 68 -159 177 -225 222 -99 67
-233 121 -354 142 -80 15 -246 12 -326 -4z"/>
<path d="M3140 3050 l0 -320 1160 0 1160 0 0 320 0 320 -1160 0 -1160 0 0
-320z"/>
<path d="M3140 1990 l0 -320 1160 0 1160 0 0 320 0 320 -1160 0 -1160 0 0
-320z"/>
<path d="M3140 930 l0 -320 1160 0 1160 0 0 320 0 320 -1160 0 -1160 0 0 -320z"/>
</g>
</svg>
